<svg version="1.1" id="Layer_1" xmlns="http://www.w3.org/2000/svg" xmlns:xlink="http://www.w3.org/1999/xlink" x="0px" y="0px"
	 width="100%" viewBox="0 0 500 500" enable-background="new 0 0 500 500" xml:space="preserve">
<path fill="currentColor" stroke="none" 
	d="
M322.000000,501.000000 
	C214.666687,501.000000 107.833382,501.000000 1.000057,501.000000 
	C1.000038,334.333405 1.000038,167.666794 1.000019,1.000147 
	C167.666565,1.000098 334.333130,1.000098 500.999756,1.000049 
	C500.999847,167.666519 500.999847,334.333038 500.999939,500.999786 
	C441.500000,501.000000 382.000000,501.000000 322.000000,501.000000 
M340.960541,345.392120 
	C331.539246,343.674286 325.703461,349.641510 319.841858,355.835846 
	C317.499847,345.212433 315.936005,344.280518 305.288086,346.723999 
	C305.288086,366.041626 305.288086,385.363312 305.288086,404.703156 
	C310.304047,404.703156 314.884460,404.703156 319.992706,404.703156 
	C319.992706,395.479614 319.939575,386.545166 320.006073,377.611603 
	C320.089996,366.342804 325.184509,361.281921 336.437592,360.814148 
	C338.187683,360.741394 339.895996,359.663574 342.121521,359.017578 
	C342.456818,358.993713 342.792114,358.969879 344.027283,358.929993 
	C346.805786,358.929993 349.584290,358.929993 352.646637,358.929993 
	C352.748871,361.154968 352.879425,362.782196 352.889069,364.410156 
	C352.935516,372.241943 352.796478,380.078308 353.021820,387.904480 
	C353.210968,394.474701 355.675903,399.947540 362.063721,402.819092 
	C368.999786,405.937012 376.234467,405.110413 383.456116,404.707275 
	C383.456116,400.240295 383.456116,396.329193 383.456116,391.976318 
	C380.296722,391.976318 377.315063,392.568878 374.737640,391.802307 
	C372.370026,391.098114 368.704834,389.039337 368.600555,387.388458 
	C368.008514,378.019653 368.313873,368.594116 368.313873,358.684204 
	C373.761780,358.684204 378.681976,358.684204 383.620819,358.684204 
	C383.620819,354.257965 383.620819,350.353424 383.620819,345.948364 
	C378.363892,345.948364 373.439484,345.948364 367.821533,345.948364 
	C367.821533,340.425049 367.821533,335.386230 367.821533,330.108887 
	C364.120117,330.108887 361.122528,330.255890 358.145935,330.068542 
	C355.023285,329.871918 354.146667,331.357697 353.988800,334.206451 
	C353.779419,337.984070 353.159546,341.738922 352.655029,346.021942 
	C349.302490,346.021942 346.178192,346.021942 342.573425,345.996857 
	C342.257019,345.985962 341.940887,345.969757 340.960541,345.392120 
M29.773996,330.543518 
	C29.773996,355.156921 29.773996,379.770294 29.773996,404.661377 
	C35.035645,404.661377 39.744671,404.661377 45.017616,404.661377 
	C45.017616,393.759766 45.017616,383.188477 45.017616,372.384064 
	C47.021183,372.272461 48.512707,372.338440 49.946987,372.083038 
	C55.385540,371.114441 58.357460,373.287384 60.423946,378.495697 
	C63.548092,386.369720 67.469505,393.936157 71.263351,401.527771 
	C71.966980,402.935760 73.597054,404.720306 74.921791,404.828064 
	C79.780937,405.223236 84.691628,404.984680 90.304466,404.984680 
	C84.408669,393.018768 78.933617,381.906799 73.403069,370.682190 
	C74.642113,369.897919 75.309479,369.423065 76.022751,369.031921 
	C86.377861,363.353058 90.595512,354.679657 88.987526,342.340668 
	C87.749870,332.843445 80.222824,325.082947 69.412743,322.962952 
	C64.730759,322.044769 59.833324,322.058716 55.027988,321.973175 
	C46.761379,321.825958 38.490253,321.932404 29.773569,321.932404 
	C29.773569,324.954071 29.773569,327.257324 29.773996,330.543518 
M166.749588,431.010223 
	C171.015305,431.010223 175.281036,431.010223 179.978027,431.010223 
	C179.978027,425.075439 179.978043,419.779266 179.978043,414.483093 
	C179.978043,409.230865 179.978027,403.978607 179.978027,398.394867 
	C195.419586,409.233032 211.221115,408.542816 220.990875,396.970032 
	C231.729187,384.249939 231.251511,364.836212 219.914307,353.214600 
	C208.951401,341.976654 194.423264,342.004852 180.449844,353.269989 
	C177.631302,351.651672 180.949493,345.911957 175.509644,346.017029 
	C172.083115,346.083221 168.654282,346.029358 165.177505,346.029358 
	C165.024658,347.586792 164.875488,348.400238 164.875046,349.213745 
	C164.860748,375.192749 164.847763,401.171814 164.899628,427.150696 
	C164.902069,428.375153 165.500259,429.598389 166.749588,431.010223 
M30.166433,122.973427 
	C30.040272,124.119095 29.804897,125.264671 29.803989,126.410439 
	C29.783569,152.221680 29.787056,178.032944 29.796642,203.844193 
	C29.796991,204.785355 29.904751,205.726501 29.960609,206.637604 
	C35.238827,206.637604 40.120075,206.637604 45.419899,206.637604 
	C45.419899,195.694901 45.419899,185.116150 45.419899,174.003906 
	C52.651657,174.003906 59.474407,174.340881 66.252594,173.934540 
	C80.855400,173.059097 90.733017,162.865036 90.947891,148.936569 
	C91.171677,134.430710 81.920639,123.977585 66.903145,123.018181 
	C54.961929,122.255302 42.948132,122.628555 30.166433,122.973427 
M195.938629,252.445587 
	C192.393005,256.140198 189.830765,260.277649 189.862320,265.832275 
	C194.785507,265.832275 199.576706,265.832275 204.317017,265.832275 
	C207.947113,258.398285 213.973373,255.656113 221.492645,257.934296 
	C227.213379,259.667572 229.517365,263.606598 228.577240,270.643616 
	C226.368301,270.643616 224.069901,270.466675 221.807236,270.676117 
	C214.406509,271.361206 206.786636,271.310516 199.687683,273.191040 
	C191.682510,275.311646 187.633682,282.483429 188.044373,290.365143 
	C188.440674,297.970825 193.135147,304.035278 201.083206,306.115906 
	C212.103043,309.000610 222.265564,307.969208 229.999390,297.028687 
	C230.722809,300.606812 231.258438,303.256104 231.758163,305.727844 
	C236.320297,305.727844 240.417770,305.727844 244.734344,305.727844 
	C244.734344,292.342346 245.087494,279.220459 244.606918,266.129181 
	C244.300034,257.769714 240.123535,250.966858 232.127487,247.753998 
	C219.628815,242.732040 207.465668,243.058746 195.938629,252.445587 
M249.592773,182.133606 
	C251.030197,181.720245 252.464478,180.961609 253.905548,180.948486 
	C264.903168,180.848282 275.902161,180.893478 286.900726,180.893448 
	C289.492432,180.893433 292.084137,180.893448 294.583649,180.893448 
	C296.575104,161.999466 286.069000,147.621567 269.698944,145.982239 
	C250.369400,144.046570 235.897507,155.141373 234.094238,173.278427 
	C232.226501,192.063904 243.474472,206.666641 260.963379,208.161407 
	C276.956116,209.528290 291.366882,200.384491 292.372528,188.073776 
	C288.365509,188.073776 284.359680,187.901413 280.383057,188.167160 
	C278.988892,188.260345 277.255646,189.094620 276.381439,190.165390 
	C272.191040,195.297958 266.946411,196.701569 260.738831,195.126724 
	C254.435287,193.527573 250.792480,189.419678 249.592773,182.133606 
M117.721954,390.913788 
	C113.812447,388.101593 112.149536,384.285614 112.091347,378.929108 
	C127.185440,378.929108 141.751266,378.929108 156.199692,378.929108 
	C159.057983,362.472443 148.255997,347.131805 132.867325,345.065460 
	C113.872253,342.514801 98.165909,353.877655 96.956360,371.045410 
	C95.463173,392.239044 106.554657,405.800110 125.691704,406.178802 
	C140.565598,406.473175 153.955826,397.114136 153.581116,386.204285 
	C150.795486,386.204285 147.945831,385.900604 145.196365,386.295166 
	C142.763123,386.644348 139.806564,387.110199 138.182953,388.670868 
	C131.938721,394.673126 126.273117,395.661804 117.721954,390.913788 
M364.597412,245.570587 
	C349.605927,242.761673 337.107941,247.919754 330.199554,259.767029 
	C323.717041,270.884125 325.065277,287.070923 333.283905,296.796906 
	C341.663025,306.712830 355.765320,310.167145 368.284729,305.370270 
	C380.419281,300.720856 387.784332,289.277069 387.489685,275.529663 
	C387.172729,260.741455 379.322754,250.177811 364.597412,245.570587 
M115.023331,294.482635 
	C114.997978,285.819214 115.258774,277.143433 114.886070,268.494965 
	C114.171173,251.906174 103.826004,243.139389 87.602402,244.976959 
	C80.765594,245.751328 75.744781,249.577850 71.398636,255.306091 
	C70.778328,251.861023 70.269218,249.033539 69.785332,246.346130 
	C65.164139,246.346130 60.907318,246.346130 56.586166,246.346130 
	C56.586166,266.361847 56.586166,286.075745 56.586166,305.649780 
	C61.862144,305.649780 66.770943,305.649780 71.907532,305.649780 
	C71.907532,295.480255 71.828041,285.666687 71.957962,275.855835 
	C71.994957,273.062714 72.248077,270.153381 73.083382,267.512909 
	C75.301949,260.499756 81.443214,257.011749 89.168831,257.957184 
	C95.117676,258.685211 98.656845,262.735199 99.189354,270.288025 
	C99.622047,276.425110 99.501953,282.603424 99.558289,288.764069 
	C99.609810,294.398102 99.569214,300.032959 99.569214,305.704895 
	C104.955849,305.704895 109.858498,305.704895 115.023331,305.704895 
	C115.023331,302.094757 115.023331,298.785583 115.023331,294.482635 
M295.025513,367.701782 
	C291.818542,355.424530 284.153900,347.355194 271.617645,345.268127 
	C259.279816,343.214050 248.271942,346.460388 241.005936,357.484406 
	C233.647995,368.647919 233.556641,380.587524 239.919998,392.040070 
	C247.002136,404.786285 263.260651,409.837280 276.964478,404.436920 
	C291.096710,398.867798 298.625061,383.991608 295.025513,367.701782 
M410.243500,247.158157 
	C405.834137,246.661575 401.424744,246.164978 396.649445,245.627182 
	C396.649445,265.158203 396.646576,283.636902 396.656494,302.115570 
	C396.657104,303.247620 396.758820,304.379639 396.823944,305.727356 
	C401.931061,305.727356 406.822601,305.727356 412.040741,305.727356 
	C412.040741,295.490082 411.781189,285.514496 412.171539,275.564392 
	C412.322571,271.714722 413.312286,267.601898 415.045563,264.178986 
	C417.713806,258.909698 423.753540,256.880371 430.176910,258.029785 
	C435.143127,258.918427 438.245148,262.209015 439.192413,268.576935 
	C439.824768,272.827820 439.810455,277.192261 439.861206,281.508545 
	C439.956268,289.595154 439.888580,297.683655 439.888580,305.744629 
	C445.319519,305.744629 450.080597,305.744629 455.205414,305.744629 
	C455.205414,294.865479 455.224915,284.239014 455.191772,273.612701 
	C455.183472,270.949341 455.188873,268.264801 454.875580,265.627075 
	C453.233063,251.797165 444.325775,244.374954 430.448425,244.766037 
	C422.598145,244.987274 416.770569,248.789749 411.493469,255.269501 
	C411.058044,252.185989 410.763458,250.099960 410.243500,247.158157 
M225.644867,190.109192 
	C225.927628,188.852478 226.210388,187.595749 226.571030,185.992889 
	C221.781860,185.992889 217.293884,185.884003 212.818726,186.075378 
	C211.799103,186.118988 210.366898,186.960175 209.901566,187.843536 
	C206.613617,194.085556 201.210892,195.929779 194.775482,194.935150 
	C188.374542,193.945831 184.168533,189.792496 183.028885,183.560135 
	C182.244934,179.272934 182.247971,174.592651 183.080444,170.318100 
	C184.293854,164.087463 188.626633,160.042206 195.004822,159.105927 
	C201.259705,158.187759 206.471222,160.167953 209.769363,166.057144 
	C210.283066,166.974396 211.620178,167.944611 212.616882,167.989273 
	C217.195694,168.194336 221.788818,168.079544 226.628723,168.079544 
	C225.085022,160.242935 221.325668,154.599182 215.189774,150.560623 
	C195.651947,137.701080 169.871216,149.348297 166.394760,172.588135 
	C164.047394,188.279999 173.132294,202.927155 187.819504,207.130264 
	C203.959534,211.749146 218.851807,205.253479 225.644867,190.109192 
M143.255600,240.726395 
	C143.802292,238.517883 143.655289,235.208511 145.042725,234.334259 
	C147.776215,232.611832 151.360977,232.240326 154.650040,231.293808 
	C154.650040,227.448715 154.650040,223.376450 154.650040,219.190552 
	C147.316818,218.796143 140.301590,218.572540 134.259598,223.035110 
	C126.355003,228.873367 128.420425,237.884247 127.706100,245.863159 
	C124.822746,246.024506 122.395012,246.160355 119.967590,246.296188 
	C119.967590,250.676483 119.967590,254.616837 119.967590,259.176941 
	C122.710564,259.176941 125.241142,259.176941 128.074738,259.176941 
	C128.074738,275.064758 128.074738,290.329315 128.074738,305.672974 
	C133.292206,305.672974 138.181274,305.672974 143.391449,305.672974 
	C143.391449,290.071136 143.391449,274.794495 143.391449,258.981201 
	C147.766388,258.981201 151.834030,258.981201 155.803970,258.981201 
	C155.803970,254.382965 155.803970,250.335068 155.803970,245.891327 
	C151.508209,245.891327 147.577286,245.891327 143.255142,245.891327 
	C143.255142,244.193100 143.255142,242.898224 143.255600,240.726395 
M276.186340,285.847076 
	C276.186340,277.062897 276.186340,268.278717 276.186340,259.094604 
	C281.714874,259.094604 286.818451,259.094604 292.135956,259.094604 
	C292.135956,254.591110 292.135956,250.493958 292.135956,245.970154 
	C286.788300,245.970154 281.687836,245.970154 276.096039,245.970154 
	C276.096039,240.494049 276.096039,235.421616 276.096039,230.284424 
	C271.336060,230.284424 267.092682,230.284424 262.600067,230.284424 
	C261.950897,235.564697 261.329102,240.622330 260.643860,246.196075 
	C257.203674,246.196075 253.977264,246.196075 250.681488,246.196075 
	C250.681488,250.699554 250.681488,254.638962 250.681488,258.800201 
	C254.130264,258.963043 257.358368,259.115479 260.953583,259.285248 
	C260.953583,269.355774 260.750153,279.001587 261.014526,288.634552 
	C261.248718,297.168274 265.199280,302.954193 272.758698,304.620148 
	C278.934967,305.981262 285.431885,305.887238 291.700195,306.430908 
	C291.700195,301.231995 291.700195,297.147247 291.700195,292.846527 
	C288.713043,292.846527 286.052612,292.927429 283.399017,292.827454 
	C279.452942,292.678833 276.685852,291.036102 276.186340,285.847076 
M172.454208,305.998962 
	C174.554688,305.998962 176.655151,305.998962 178.733673,305.998962 
	C178.733673,276.720734 178.733673,248.025452 178.733673,219.255615 
	C173.670746,219.255615 168.911880,219.255615 163.905365,219.255615 
	C163.905365,248.168808 163.905365,276.856812 163.905365,305.998962 
	C166.562866,305.998962 169.021545,305.998962 172.454208,305.998962 
M44.986046,305.271545 
	C44.986046,277.416626 44.986046,249.561722 44.986046,221.737244 
	C39.597393,221.737244 34.858009,221.737244 30.087002,221.737244 
	C30.087002,249.938126 30.087002,277.800446 30.087002,305.909943 
	C35.004566,305.909943 39.633343,305.909943 44.986046,305.271545 
M421.881348,163.354935 
	C414.930725,171.467804 413.997284,181.037048 419.385773,188.939346 
	C424.251068,196.074356 434.098083,199.224792 442.433105,196.313126 
	C450.415466,193.524643 455.586639,186.824020 455.802094,178.267548 
	C456.007965,170.090836 452.348022,163.773239 445.149384,159.889648 
	C437.837860,155.945175 428.752411,157.312469 421.881348,163.354935 
M339.485504,197.123032 
	C351.207001,196.865967 359.049988,188.876114 359.012115,177.230804 
	C358.976166,166.180527 350.594086,157.937256 339.342438,157.886856 
	C328.046295,157.836243 319.170563,166.417603 319.158905,177.401016 
	C319.147156,188.469254 327.354309,196.801361 339.485504,197.123032 
M390.166107,197.091614 
	C399.173065,195.768066 405.846954,189.429489 406.973907,181.128235 
	C408.265350,171.614960 403.585327,162.609741 395.625366,159.291611 
	C386.942230,155.672012 377.438507,158.064148 371.775360,165.270981 
	C366.584930,171.876251 366.301117,179.240234 369.618225,186.438065 
	C373.366852,194.572266 380.407776,197.810989 390.166107,197.091614 
M97.903442,149.707916 
	C97.903442,168.653244 97.903442,187.598557 97.903442,206.694916 
	C103.218246,206.694916 108.106224,206.694916 113.238785,206.694916 
	C113.238785,205.239609 113.221046,204.090378 113.241600,202.941833 
	C113.408310,193.624329 113.190353,184.277939 113.878143,174.998779 
	C114.426414,167.601807 118.140930,164.044159 125.394768,162.580551 
	C128.431564,161.967789 131.590363,161.959656 134.718842,161.674347 
	C134.718842,156.316650 134.718842,151.128052 134.718842,144.848709 
	C130.171417,146.346695 125.993095,147.088272 122.501831,149.051575 
	C119.005028,151.017975 116.194328,154.204468 113.015511,156.913605 
	C112.538383,153.869888 112.032341,150.641708 111.469925,147.053879 
	C108.110367,147.053879 104.964516,146.888412 101.850464,147.131073 
	C100.507111,147.235748 99.229546,148.184692 97.903442,149.707916 
M301.363556,304.074524 
	C301.778473,304.687988 302.179321,305.823151 302.610504,305.834808 
	C307.342834,305.962372 312.079895,305.914856 316.598297,305.914856 
	C316.598297,285.597412 316.598297,265.919037 316.598297,246.250977 
	C311.454041,246.250977 306.684357,246.250977 301.349091,246.250977 
	C301.349091,265.353760 301.349091,284.249329 301.363556,304.074524 
M156.970352,150.708252 
	C156.144867,149.486374 155.406998,147.293045 154.478851,147.209335 
	C150.261032,146.828873 145.989624,147.042633 141.658600,147.042633 
	C141.658600,167.365112 141.658600,187.047333 141.658600,206.710083 
	C146.876831,206.710083 151.776581,206.710083 156.970795,206.710083 
	C156.970795,188.159836 156.970795,169.913605 156.970352,150.708252 
M300.782501,223.371552 
	C298.643555,229.307083 299.795197,233.369385 304.279266,235.706085 
	C308.536865,237.924774 314.100433,236.896637 316.931183,233.368027 
	C319.673096,229.950150 319.519623,225.200470 316.564819,222.028168 
	C313.125763,218.336029 307.151947,218.018982 302.554108,221.317993 
	C302.026215,221.696793 301.624176,222.251007 300.782501,223.371552 
M154.652451,136.351151 
	C159.166382,132.347412 160.124908,128.190506 157.466675,124.146568 
	C154.819687,120.119759 148.570908,118.781975 144.026474,121.269203 
	C140.283875,123.317574 138.584091,127.945068 140.071121,132.037201 
	C141.660446,136.410828 146.719589,138.680374 152.115692,137.417435 
	C152.761032,137.266403 153.377060,136.990250 154.652451,136.351151 
z"/>
<path fill="#97A3A9" opacity="1.000000" stroke="none" 
	d="
M29.773783,330.052063 
	C29.773569,327.257324 29.773569,324.954071 29.773569,321.932404 
	C38.490253,321.932404 46.761379,321.825958 55.027988,321.973175 
	C59.833324,322.058716 64.730759,322.044769 69.412743,322.962952 
	C80.222824,325.082947 87.749870,332.843445 88.987526,342.340668 
	C90.595512,354.679657 86.377861,363.353058 76.022751,369.031921 
	C75.309479,369.423065 74.642113,369.897919 73.403069,370.682190 
	C78.933617,381.906799 84.408669,393.018768 90.304466,404.984680 
	C84.691628,404.984680 79.780937,405.223236 74.921791,404.828064 
	C73.597054,404.720306 71.966980,402.935760 71.263351,401.527771 
	C67.469505,393.936157 63.548092,386.369720 60.423946,378.495697 
	C58.357460,373.287384 55.385540,371.114441 49.946987,372.083038 
	C48.512707,372.338440 47.021183,372.272461 45.017616,372.384064 
	C45.017616,383.188477 45.017616,393.759766 45.017616,404.661377 
	C39.744671,404.661377 35.035645,404.661377 29.773996,404.661377 
	C29.773996,379.770294 29.773996,355.156921 29.773783,330.052063 
M73.046608,342.760742 
	C71.757851,338.807556 69.078110,335.736145 65.067787,335.398041 
	C58.552151,334.848724 51.956371,335.249908 45.298302,335.249908 
	C45.298302,343.908844 45.298302,352.262634 45.298302,360.996338 
	C50.292820,360.996338 54.918407,361.061035 59.541599,360.983307 
	C70.258514,360.803131 75.476280,354.129547 73.046608,342.760742 
z"/>
<path fill="#97A3A9" opacity="1.000000" stroke="none" 
	d="
M166.285309,430.916199 
	C165.500259,429.598389 164.902069,428.375153 164.899628,427.150696 
	C164.847763,401.171814 164.860748,375.192749 164.875046,349.213745 
	C164.875488,348.400238 165.024658,347.586792 165.177505,346.029358 
	C168.654282,346.029358 172.083115,346.083221 175.509644,346.017029 
	C180.949493,345.911957 177.631302,351.651672 180.449844,353.269989 
	C194.423264,342.004852 208.951401,341.976654 219.914307,353.214600 
	C231.251511,364.836212 231.729187,384.249939 220.990875,396.970032 
	C211.221115,408.542816 195.419586,409.233032 179.978027,398.394867 
	C179.978027,403.978607 179.978043,409.230865 179.978043,414.483093 
	C179.978043,419.779266 179.978027,425.075439 179.978027,431.010223 
	C175.281036,431.010223 171.015305,431.010223 166.285309,430.916199 
M179.951172,372.878174 
	C178.199829,387.467651 189.639465,395.432770 200.987061,392.489258 
	C209.539307,390.270844 214.038879,382.692383 212.982712,372.678955 
	C212.175400,365.025085 205.791656,358.684937 198.240295,358.037170 
	C188.923508,357.238007 182.651154,362.046021 179.951172,372.878174 
z"/>
<path fill="#2F445B" opacity="1.000000" stroke="none" 
	d="
M30.566498,122.735413 
	C42.948132,122.628555 54.961929,122.255302 66.903145,123.018181 
	C81.920639,123.977585 91.171677,134.430710 90.947891,148.936569 
	C90.733017,162.865036 80.855400,173.059097 66.252594,173.934540 
	C59.474407,174.340881 52.651657,174.003906 45.419899,174.003906 
	C45.419899,185.116150 45.419899,195.694901 45.419899,206.637604 
	C40.120075,206.637604 35.238827,206.637604 29.960609,206.637604 
	C29.904751,205.726501 29.796991,204.785355 29.796642,203.844193 
	C29.787056,178.032944 29.783569,152.221680 29.803989,126.410439 
	C29.804897,125.264671 30.040272,124.119095 30.566498,122.735413 
M73.924721,141.963913 
	C70.970306,139.804749 68.226624,136.268204 65.016991,135.777145 
	C58.608158,134.796631 51.943775,135.486450 45.398952,135.486450 
	C45.398952,144.240753 45.398952,152.796494 45.398952,161.785706 
	C50.631809,161.785706 55.584164,161.920975 60.526756,161.758789 
	C72.415306,161.368683 77.368675,154.393906 73.924721,141.963913 
z"/>
<path fill="#30455C" opacity="1.000000" stroke="none" 
	d="
M196.201447,252.202057 
	C207.465668,243.058746 219.628815,242.732040 232.127487,247.753998 
	C240.123535,250.966858 244.300034,257.769714 244.606918,266.129181 
	C245.087494,279.220459 244.734344,292.342346 244.734344,305.727844 
	C240.417770,305.727844 236.320297,305.727844 231.758163,305.727844 
	C231.258438,303.256104 230.722809,300.606812 229.999390,297.028687 
	C222.265564,307.969208 212.103043,309.000610 201.083206,306.115906 
	C193.135147,304.035278 188.440674,297.970825 188.044373,290.365143 
	C187.633682,282.483429 191.682510,275.311646 199.687683,273.191040 
	C206.786636,271.310516 214.406509,271.361206 221.807236,270.676117 
	C224.069901,270.466675 226.368301,270.643616 228.577240,270.643616 
	C229.517365,263.606598 227.213379,259.667572 221.492645,257.934296 
	C213.973373,255.656113 207.947113,258.398285 204.317017,265.832275 
	C199.576706,265.832275 194.785507,265.832275 189.862320,265.832275 
	C189.830765,260.277649 192.393005,256.140198 196.201447,252.202057 
M217.040268,295.060394 
	C224.310150,292.929047 228.210419,287.838623 228.256775,280.202057 
	C224.118652,280.202057 219.977768,280.109528 215.842468,280.222198 
	C208.260635,280.428741 204.076889,283.457550 204.341736,288.386169 
	C204.598251,293.159363 208.419205,295.339020 217.040268,295.060394 
z"/>
<path fill="#31465C" opacity="1.000000" stroke="none" 
	d="
M249.641724,182.581879 
	C250.792480,189.419678 254.435287,193.527573 260.738831,195.126724 
	C266.946411,196.701569 272.191040,195.297958 276.381439,190.165390 
	C277.255646,189.094620 278.988892,188.260345 280.383057,188.167160 
	C284.359680,187.901413 288.365509,188.073776 292.372528,188.073776 
	C291.366882,200.384491 276.956116,209.528290 260.963379,208.161407 
	C243.474472,206.666641 232.226501,192.063904 234.094238,173.278427 
	C235.897507,155.141373 250.369400,144.046570 269.698944,145.982239 
	C286.069000,147.621567 296.575104,161.999466 294.583649,180.893448 
	C292.084137,180.893448 289.492432,180.893433 286.900726,180.893448 
	C275.902161,180.893478 264.903168,180.848282 253.905548,180.948486 
	C252.464478,180.961609 251.030197,181.720245 249.641724,182.581879 
M255.660065,171.076141 
	C263.402618,171.076141 271.145142,171.076141 278.931915,171.076141 
	C278.131805,162.839172 272.602570,158.033051 264.759552,158.191574 
	C256.668427,158.355118 250.756775,163.487167 250.239349,171.076141 
	C251.742615,171.076141 253.226486,171.076141 255.660065,171.076141 
z"/>
<path fill="#98A3A9" opacity="1.000000" stroke="none" 
	d="
M118.042542,391.114380 
	C126.273117,395.661804 131.938721,394.673126 138.182953,388.670868 
	C139.806564,387.110199 142.763123,386.644348 145.196365,386.295166 
	C147.945831,385.900604 150.795486,386.204285 153.581116,386.204285 
	C153.955826,397.114136 140.565598,406.473175 125.691704,406.178802 
	C106.554657,405.800110 95.463173,392.239044 96.956360,371.045410 
	C98.165909,353.877655 113.872253,342.514801 132.867325,345.065460 
	C148.255997,347.131805 159.057983,362.472443 156.199692,378.929108 
	C141.751266,378.929108 127.185440,378.929108 112.091347,378.929108 
	C112.149536,384.285614 113.812447,388.101593 118.042542,391.114380 
M112.533478,367.238586 
	C112.901741,368.097076 113.258430,369.699127 113.639984,369.705048 
	C122.659096,369.845520 131.680878,369.814087 140.733139,369.814087 
	C140.254166,362.667572 136.602661,358.577484 130.140427,357.248932 
	C122.887230,355.757751 116.428848,359.215759 112.533478,367.238586 
z"/>
<path fill="#30455C" opacity="1.000000" stroke="none" 
	d="
M365.000732,245.689911 
	C379.322754,250.177811 387.172729,260.741455 387.489685,275.529663 
	C387.784332,289.277069 380.419281,300.720856 368.284729,305.370270 
	C355.765320,310.167145 341.663025,306.712830 333.283905,296.796906 
	C325.065277,287.070923 323.717041,270.884125 330.199554,259.767029 
	C337.107941,247.919754 349.605927,242.761673 365.000732,245.689911 
M356.565735,293.999084 
	C361.626190,294.127838 365.580994,291.914703 368.548248,287.997009 
	C373.080750,282.012726 372.948425,269.899994 368.436798,263.930176 
	C363.584717,257.509888 354.817230,256.056976 348.522736,260.869446 
	C341.457611,266.271057 341.178741,273.858307 342.625488,281.669830 
	C343.951385,288.828766 348.413025,293.025696 356.565735,293.999084 
z"/>
<path fill="#31465C" opacity="1.000000" stroke="none" 
	d="
M115.023331,294.979523 
	C115.023331,298.785583 115.023331,302.094757 115.023331,305.704895 
	C109.858498,305.704895 104.955849,305.704895 99.569214,305.704895 
	C99.569214,300.032959 99.609810,294.398102 99.558289,288.764069 
	C99.501953,282.603424 99.622047,276.425110 99.189354,270.288025 
	C98.656845,262.735199 95.117676,258.685211 89.168831,257.957184 
	C81.443214,257.011749 75.301949,260.499756 73.083382,267.512909 
	C72.248077,270.153381 71.994957,273.062714 71.957962,275.855835 
	C71.828041,285.666687 71.907532,295.480255 71.907532,305.649780 
	C66.770943,305.649780 61.862144,305.649780 56.586166,305.649780 
	C56.586166,286.075745 56.586166,266.361847 56.586166,246.346130 
	C60.907318,246.346130 65.164139,246.346130 69.785332,246.346130 
	C70.269218,249.033539 70.778328,251.861023 71.398636,255.306091 
	C75.744781,249.577850 80.765594,245.751328 87.602402,244.976959 
	C103.826004,243.139389 114.171173,251.906174 114.886070,268.494965 
	C115.258774,277.143433 114.997978,285.819214 115.023331,294.979523 
z"/>
<path fill="#98A3A9" opacity="1.000000" stroke="none" 
	d="
M295.078613,368.119873 
	C298.625061,383.991608 291.096710,398.867798 276.964478,404.436920 
	C263.260651,409.837280 247.002136,404.786285 239.919998,392.040070 
	C233.556641,380.587524 233.647995,368.647919 241.005936,357.484406 
	C248.271942,346.460388 259.279816,343.214050 271.617645,345.268127 
	C284.153900,347.355194 291.818542,355.424530 295.078613,368.119873 
M280.083923,371.869995 
	C278.943329,363.594147 273.635529,358.195129 266.414948,357.966095 
	C258.736877,357.722565 253.186005,362.172546 251.771637,370.610229 
	C251.133514,374.417053 251.392380,378.556610 252.136871,382.370972 
	C253.313873,388.401184 258.239685,392.477539 263.850616,393.017487 
	C270.458984,393.653412 276.506531,390.590424 278.648315,384.479950 
	C279.920929,380.849213 279.688080,376.690765 280.083923,371.869995 
z"/>
<path fill="#2E435A" opacity="1.000000" stroke="none" 
	d="
M410.356201,247.586060 
	C410.763458,250.099960 411.058044,252.185989 411.493469,255.269501 
	C416.770569,248.789749 422.598145,244.987274 430.448425,244.766037 
	C444.325775,244.374954 453.233063,251.797165 454.875580,265.627075 
	C455.188873,268.264801 455.183472,270.949341 455.191772,273.612701 
	C455.224915,284.239014 455.205414,294.865479 455.205414,305.744629 
	C450.080597,305.744629 445.319519,305.744629 439.888580,305.744629 
	C439.888580,297.683655 439.956268,289.595154 439.861206,281.508545 
	C439.810455,277.192261 439.824768,272.827820 439.192413,268.576935 
	C438.245148,262.209015 435.143127,258.918427 430.176910,258.029785 
	C423.753540,256.880371 417.713806,258.909698 415.045563,264.178986 
	C413.312286,267.601898 412.322571,271.714722 412.171539,275.564392 
	C411.781189,285.514496 412.040741,295.490082 412.040741,305.727356 
	C406.822601,305.727356 401.931061,305.727356 396.823944,305.727356 
	C396.758820,304.379639 396.657104,303.247620 396.656494,302.115570 
	C396.646576,283.636902 396.649445,265.158203 396.649445,245.627182 
	C401.424744,246.164978 405.834137,246.661575 410.356201,247.586060 
z"/>
<path fill="#31455C" opacity="1.000000" stroke="none" 
	d="
M225.473114,190.445343 
	C218.851807,205.253479 203.959534,211.749146 187.819504,207.130264 
	C173.132294,202.927155 164.047394,188.279999 166.394760,172.588135 
	C169.871216,149.348297 195.651947,137.701080 215.189774,150.560623 
	C221.325668,154.599182 225.085022,160.242935 226.628723,168.079544 
	C221.788818,168.079544 217.195694,168.194336 212.616882,167.989273 
	C211.620178,167.944611 210.283066,166.974396 209.769363,166.057144 
	C206.471222,160.167953 201.259705,158.187759 195.004822,159.105927 
	C188.626633,160.042206 184.293854,164.087463 183.080444,170.318100 
	C182.247971,174.592651 182.244934,179.272934 183.028885,183.560135 
	C184.168533,189.792496 188.374542,193.945831 194.775482,194.935150 
	C201.210892,195.929779 206.613617,194.085556 209.901566,187.843536 
	C210.366898,186.960175 211.799103,186.118988 212.818726,186.075378 
	C217.293884,185.884003 221.781860,185.992889 226.571030,185.992889 
	C226.210388,187.595749 225.927628,188.852478 225.473114,190.445343 
z"/>
<path fill="#2E435A" opacity="1.000000" stroke="none" 
	d="
M143.255371,241.164856 
	C143.255142,242.898224 143.255142,244.193100 143.255142,245.891327 
	C147.577286,245.891327 151.508209,245.891327 155.803970,245.891327 
	C155.803970,250.335068 155.803970,254.382965 155.803970,258.981201 
	C151.834030,258.981201 147.766388,258.981201 143.391449,258.981201 
	C143.391449,274.794495 143.391449,290.071136 143.391449,305.672974 
	C138.181274,305.672974 133.292206,305.672974 128.074738,305.672974 
	C128.074738,290.329315 128.074738,275.064758 128.074738,259.176941 
	C125.241142,259.176941 122.710564,259.176941 119.967590,259.176941 
	C119.967590,254.616837 119.967590,250.676483 119.967590,246.296188 
	C122.395012,246.160355 124.822746,246.024506 127.706100,245.863159 
	C128.420425,237.884247 126.355003,228.873367 134.259598,223.035110 
	C140.301590,218.572540 147.316818,218.796143 154.650040,219.190552 
	C154.650040,223.376450 154.650040,227.448715 154.650040,231.293808 
	C151.360977,232.240326 147.776215,232.611832 145.042725,234.334259 
	C143.655289,235.208511 143.802292,238.517883 143.255371,241.164856 
z"/>
<path fill="#2F445B" opacity="1.000000" stroke="none" 
	d="
M276.225494,286.281433 
	C276.685852,291.036102 279.452942,292.678833 283.399017,292.827454 
	C286.052612,292.927429 288.713043,292.846527 291.700195,292.846527 
	C291.700195,297.147247 291.700195,301.231995 291.700195,306.430908 
	C285.431885,305.887238 278.934967,305.981262 272.758698,304.620148 
	C265.199280,302.954193 261.248718,297.168274 261.014526,288.634552 
	C260.750153,279.001587 260.953583,269.355774 260.953583,259.285248 
	C257.358368,259.115479 254.130264,258.963043 250.681488,258.800201 
	C250.681488,254.638962 250.681488,250.699554 250.681488,246.196075 
	C253.977264,246.196075 257.203674,246.196075 260.643860,246.196075 
	C261.329102,240.622330 261.950897,235.564697 262.600067,230.284424 
	C267.092682,230.284424 271.336060,230.284424 276.096039,230.284424 
	C276.096039,235.421616 276.096039,240.494049 276.096039,245.970154 
	C281.687836,245.970154 286.788300,245.970154 292.135956,245.970154 
	C292.135956,250.493958 292.135956,254.591110 292.135956,259.094604 
	C286.818451,259.094604 281.714874,259.094604 276.186340,259.094604 
	C276.186340,268.278717 276.186340,277.062897 276.225494,286.281433 
z"/>
<path fill="#98A3A9" opacity="1.000000" stroke="none" 
	d="
M343.053925,346.021942 
	C346.178192,346.021942 349.302490,346.021942 352.655029,346.021942 
	C353.159546,341.738922 353.779419,337.984070 353.988800,334.206451 
	C354.146667,331.357697 355.023285,329.871918 358.145935,330.068542 
	C361.122528,330.255890 364.120117,330.108887 367.821533,330.108887 
	C367.821533,335.386230 367.821533,340.425049 367.821533,345.948364 
	C373.439484,345.948364 378.363892,345.948364 383.620819,345.948364 
	C383.620819,350.353424 383.620819,354.257965 383.620819,358.684204 
	C378.681976,358.684204 373.761780,358.684204 368.313873,358.684204 
	C368.313873,368.594116 368.008514,378.019653 368.600555,387.388458 
	C368.704834,389.039337 372.370026,391.098114 374.737640,391.802307 
	C377.315063,392.568878 380.296722,391.976318 383.456116,391.976318 
	C383.456116,396.329193 383.456116,400.240295 383.456116,404.707275 
	C376.234467,405.110413 368.999786,405.937012 362.063721,402.819092 
	C355.675903,399.947540 353.210968,394.474701 353.021820,387.904480 
	C352.796478,380.078308 352.935516,372.241943 352.889069,364.410156 
	C352.879425,362.782196 352.748871,361.154968 352.646637,358.929993 
	C349.584290,358.929993 346.805786,358.929993 343.497406,358.484985 
	C342.996338,354.033936 343.025116,350.027954 343.053925,346.021942 
z"/>
<path fill="#2D4259" opacity="1.000000" stroke="none" 
	d="
M171.967224,305.998962 
	C169.021545,305.998962 166.562866,305.998962 163.905365,305.998962 
	C163.905365,276.856812 163.905365,248.168808 163.905365,219.255615 
	C168.911880,219.255615 173.670746,219.255615 178.733673,219.255615 
	C178.733673,248.025452 178.733673,276.720734 178.733673,305.998962 
	C176.655151,305.998962 174.554688,305.998962 171.967224,305.998962 
z"/>
<path fill="#2E435A" opacity="1.000000" stroke="none" 
	d="
M44.624084,305.590759 
	C39.633343,305.909943 35.004566,305.909943 30.087002,305.909943 
	C30.087002,277.800446 30.087002,249.938126 30.087002,221.737244 
	C34.858009,221.737244 39.597393,221.737244 44.986046,221.737244 
	C44.986046,249.561722 44.986046,277.416626 44.624084,305.590759 
z"/>
<path fill="#034CAE" opacity="1.000000" stroke="none" 
	d="
M422.153076,163.115540 
	C428.752411,157.312469 437.837860,155.945175 445.149384,159.889648 
	C452.348022,163.773239 456.007965,170.090836 455.802094,178.267548 
	C455.586639,186.824020 450.415466,193.524643 442.433105,196.313126 
	C434.098083,199.224792 424.251068,196.074356 419.385773,188.939346 
	C413.997284,181.037048 414.930725,171.467804 422.153076,163.115540 
z"/>
<path fill="#3AB7FF" opacity="1.000000" stroke="none" 
	d="
M339.035309,197.123001 
	C327.354309,196.801361 319.147156,188.469254 319.158905,177.401016 
	C319.170563,166.417603 328.046295,157.836243 339.342438,157.886856 
	C350.594086,157.937256 358.976166,166.180527 359.012115,177.230804 
	C359.049988,188.876114 351.207001,196.865967 339.035309,197.123001 
z"/>
<path fill="#5371FF" opacity="1.000000" stroke="none" 
	d="
M389.721527,197.098694 
	C380.407776,197.810989 373.366852,194.572266 369.618225,186.438065 
	C366.301117,179.240234 366.584930,171.876251 371.775360,165.270981 
	C377.438507,158.064148 386.942230,155.672012 395.625366,159.291611 
	C403.585327,162.609741 408.265350,171.614960 406.973907,181.128235 
	C405.846954,189.429489 399.173065,195.768066 389.721527,197.098694 
z"/>
<path fill="#2E435A" opacity="1.000000" stroke="none" 
	d="
M97.912766,149.229004 
	C99.229546,148.184692 100.507111,147.235748 101.850464,147.131073 
	C104.964516,146.888412 108.110367,147.053879 111.469925,147.053879 
	C112.032341,150.641708 112.538383,153.869888 113.015511,156.913605 
	C116.194328,154.204468 119.005028,151.017975 122.501831,149.051575 
	C125.993095,147.088272 130.171417,146.346695 134.718842,144.848709 
	C134.718842,151.128052 134.718842,156.316650 134.718842,161.674347 
	C131.590363,161.959656 128.431564,161.967789 125.394768,162.580551 
	C118.140930,164.044159 114.426414,167.601807 113.878143,174.998779 
	C113.190353,184.277939 113.408310,193.624329 113.241600,202.941833 
	C113.221046,204.090378 113.238785,205.239609 113.238785,206.694916 
	C108.106224,206.694916 103.218246,206.694916 97.903442,206.694916 
	C97.903442,187.598557 97.903442,168.653244 97.912766,149.229004 
z"/>
<path fill="#97A3A9" opacity="1.000000" stroke="none" 
	d="
M341.623627,359.050537 
	C339.895996,359.663574 338.187683,360.741394 336.437592,360.814148 
	C325.184509,361.281921 320.089996,366.342804 320.006073,377.611603 
	C319.939575,386.545166 319.992706,395.479614 319.992706,404.703156 
	C314.884460,404.703156 310.304047,404.703156 305.288086,404.703156 
	C305.288086,385.363312 305.288086,366.041626 305.288086,346.723999 
	C315.936005,344.280518 317.499847,345.212433 319.841858,355.835846 
	C325.703461,349.641510 331.539246,343.674286 341.135498,346.118591 
	C341.414825,350.913574 341.519226,354.982056 341.623627,359.050537 
z"/>
<path fill="#34485F" opacity="1.000000" stroke="none" 
	d="
M301.356323,303.609741 
	C301.349091,284.249329 301.349091,265.353760 301.349091,246.250977 
	C306.684357,246.250977 311.454041,246.250977 316.598297,246.250977 
	C316.598297,265.919037 316.598297,285.597412 316.598297,305.914856 
	C312.079895,305.914856 307.342834,305.962372 302.610504,305.834808 
	C302.179321,305.823151 301.778473,304.687988 301.356323,303.609741 
z"/>
<path fill="#34485F" opacity="1.000000" stroke="none" 
	d="
M156.970581,151.187805 
	C156.970795,169.913605 156.970795,188.159836 156.970795,206.710083 
	C151.776581,206.710083 146.876831,206.710083 141.658600,206.710083 
	C141.658600,187.047333 141.658600,167.365112 141.658600,147.042633 
	C145.989624,147.042633 150.261032,146.828873 154.478851,147.209335 
	C155.406998,147.293045 156.144867,149.486374 156.970581,151.187805 
z"/>
<path fill="#33485E" opacity="1.000000" stroke="none" 
	d="
M300.973145,223.047714 
	C301.624176,222.251007 302.026215,221.696793 302.554108,221.317993 
	C307.151947,218.018982 313.125763,218.336029 316.564819,222.028168 
	C319.519623,225.200470 319.673096,229.950150 316.931183,233.368027 
	C314.100433,236.896637 308.536865,237.924774 304.279266,235.706085 
	C299.795197,233.369385 298.643555,229.307083 300.973145,223.047714 
z"/>
<path fill="#33485E" opacity="1.000000" stroke="none" 
	d="
M154.329559,136.561615 
	C153.377060,136.990250 152.761032,137.266403 152.115692,137.417435 
	C146.719589,138.680374 141.660446,136.410828 140.071121,132.037201 
	C138.584091,127.945068 140.283875,123.317574 144.026474,121.269203 
	C148.570908,118.781975 154.819687,120.119759 157.466675,124.146568 
	C160.124908,128.190506 159.166382,132.347412 154.329559,136.561615 
z"/>
<path fill="#F8F8F9" opacity="1.000000" stroke="none" 
	d="
M341.872559,359.034058 
	C341.519226,354.982056 341.414825,350.913574 341.467743,346.396667 
	C341.940887,345.969757 342.257019,345.985962 342.813660,346.009399 
	C343.025116,350.027954 342.996338,354.033936 343.047485,358.492981 
	C342.792114,358.969879 342.456818,358.993713 341.872559,359.034058 
z"/>
<path fill="currentColor" stroke="none" 
	d="
M73.149422,343.148071 
	C75.476280,354.129547 70.258514,360.803131 59.541599,360.983307 
	C54.918407,361.061035 50.292820,360.996338 45.298302,360.996338 
	C45.298302,352.262634 45.298302,343.908844 45.298302,335.249908 
	C51.956371,335.249908 58.552151,334.848724 65.067787,335.398041 
	C69.078110,335.736145 71.757851,338.807556 73.149422,343.148071 
z"/>
<path fill="#FEFEFE" opacity="1.000000" stroke="none" 
	d="
M179.978867,372.446106 
	C182.651154,362.046021 188.923508,357.238007 198.240295,358.037170 
	C205.791656,358.684937 212.175400,365.025085 212.982712,372.678955 
	C214.038879,382.692383 209.539307,390.270844 200.987061,392.489258 
	C189.639465,395.432770 178.199829,387.467651 179.978867,372.446106 
z"/>
<path fill="#FBFBFC" opacity="1.000000" stroke="none" 
	d="
M74.053085,142.342987 
	C77.368675,154.393906 72.415306,161.368683 60.526756,161.758789 
	C55.584164,161.920975 50.631809,161.785706 45.398952,161.785706 
	C45.398952,152.796494 45.398952,144.240753 45.398952,135.486450 
	C51.943775,135.486450 58.608158,134.796631 65.016991,135.777145 
	C68.226624,136.268204 70.970306,139.804749 74.053085,142.342987 
z"/>
<path fill="#F8F8F9" opacity="1.000000" stroke="none" 
	d="
M216.615265,295.102722 
	C208.419205,295.339020 204.598251,293.159363 204.341736,288.386169 
	C204.076889,283.457550 208.260635,280.428741 215.842468,280.222198 
	C219.977768,280.109528 224.118652,280.202057 228.256775,280.202057 
	C228.210419,287.838623 224.310150,292.929047 216.615265,295.102722 
z"/>
<path fill="#FBFBFC" opacity="1.000000" stroke="none" 
	d="
M255.185211,171.076141 
	C253.226486,171.076141 251.742615,171.076141 250.239349,171.076141 
	C250.756775,163.487167 256.668427,158.355118 264.759552,158.191574 
	C272.602570,158.033051 278.131805,162.839172 278.931915,171.076141 
	C271.145142,171.076141 263.402618,171.076141 255.185211,171.076141 
z"/>
<path fill="#FBFBFC" opacity="1.000000" stroke="none" 
	d="
M112.675476,366.881348 
	C116.428848,359.215759 122.887230,355.757751 130.140427,357.248932 
	C136.602661,358.577484 140.254166,362.667572 140.733139,369.814087 
	C131.680878,369.814087 122.659096,369.845520 113.639984,369.705048 
	C113.258430,369.699127 112.901741,368.097076 112.675476,366.881348 
z"/>
<path fill="#FCFCFD" opacity="1.000000" stroke="none" 
	d="
M356.150696,293.995667 
	C348.413025,293.025696 343.951385,288.828766 342.625488,281.669830 
	C341.178741,273.858307 341.457611,266.271057 348.522736,260.869446 
	C354.817230,256.056976 363.584717,257.509888 368.436798,263.930176 
	C372.948425,269.899994 373.080750,282.012726 368.548248,287.997009 
	C365.580994,291.914703 361.626190,294.127838 356.150696,293.995667 
z"/>
<path fill="#FEFEFE" opacity="1.000000" stroke="none" 
	d="
M280.108002,372.319794 
	C279.688080,376.690765 279.920929,380.849213 278.648315,384.479950 
	C276.506531,390.590424 270.458984,393.653412 263.850616,393.017487 
	C258.239685,392.477539 253.313873,388.401184 252.136871,382.370972 
	C251.392380,378.556610 251.133514,374.417053 251.771637,370.610229 
	C253.186005,362.172546 258.736877,357.722565 266.414948,357.966095 
	C273.635529,358.195129 278.943329,363.594147 280.108002,372.319794 
z"/>
</svg>